<?xml version="1.0" encoding="utf-8"?>
<!-- Generator: Adobe Illustrator 19.1.0, SVG Export Plug-In . SVG Version: 6.00 Build 0)  -->
<svg version="1.1" id="Layer_1" xmlns="http://www.w3.org/2000/svg" xmlns:xlink="http://www.w3.org/1999/xlink" x="0px" y="0px"
	 viewBox="0 0 146.6 146.6" style="enable-background:new 0 0 146.6 146.6;" xml:space="preserve">
<style type="text/css">
	.st0{fill:url(#SVGID_1_);}
	.st1{fill:none;stroke:#FFFFFF;stroke-width:3;stroke-miterlimit:10;}
	.st2{fill:#FFFFFF;}
</style>
<linearGradient id="SVGID_1_" gradientUnits="userSpaceOnUse" x1="73.2983" y1="146.5967" x2="73.2983" y2="-8.822099e-10">
	<stop  offset="0" style="stop-color:#AFB7BF"/>
	<stop  offset="1" style="stop-color:#303641"/>
</linearGradient>
<polygon class="st0" points="73.3,13.4 92.9,0 103.3,21.4 127,19.6 125.2,43.3 146.6,53.7 133.2,73.3 146.6,92.9 125.2,103.3 
	127,127 103.3,125.2 92.9,146.6 73.3,133.2 53.7,146.6 43.3,125.2 19.6,127 21.4,103.3 0,92.9 13.4,73.3 0,53.7 21.4,43.3 
	19.6,19.6 43.3,21.4 53.7,0 "/>
<polygon class="st1" points="73.3,18.2 91.3,5.9 100.8,25.6 122.6,24 121,45.8 140.7,55.2 128.4,73.3 140.7,91.3 121,100.8 
	122.6,122.6 100.8,121 91.3,140.7 73.3,128.4 55.2,140.7 45.8,121 24,122.6 25.6,100.8 5.9,91.3 18.2,73.3 5.9,55.2 25.6,45.8 
	24,24 45.8,25.6 55.2,5.9 "/>
<path class="st2" d="M66.1,77c-0.1,0-0.2-0.1-0.4-0.1c-0.1-0.8-0.2-1.5-0.3-2.3c-1.3-10.2-2.6-20.5-3.8-30.7
	c-0.1-0.9-0.4-1.4-1.4-1.3c-1,0-1.2,0.6-1.2,1.4c-0.2,1.6-0.3,3.2-0.4,4.9c-0.6,10.3-1.2,20.6-1.9,30.8c-0.2,2.9-0.3,5.8-0.5,8.7
	C56,88.2,56,88,56,87.9c-0.3-4.6-0.7-9.2-1-13.9c-0.1-0.8-0.2-1.5-1.1-1.7c-0.9-0.2-1.3,0.3-1.7,0.9c-0.6,1-1.2,2-1.8,3
	c-0.5,0.8-1,0.8-1.6,0.2c-0.3-0.3-0.6-0.5-0.9-0.8c-1-0.8-1.9-1.6-2.9-2.4c-0.3,1.6-0.7,3,0.8,4.1c1,0.7,1.9,1.6,2.8,2.4
	c1.1,0.9,1.9,0.8,2.7-0.4c0.3-0.5,0.7-1,1.3-1.8c0.1,0.8,0.2,1.3,0.2,1.7c0.2,3.3,0.5,6.5,0.7,9.8c0.4,6,0.8,12,1.2,17.9
	c0.1,1,0.5,1.4,1.5,1.4s1.4-0.5,1.5-1.5c0.1-2.3,0.3-4.5,0.4-6.8c0.7-11.8,1.4-23.5,2.1-35.3c0.1-2.1,0.3-4.2,0.4-6.3
	c0.2,0.3,0.3,0.6,0.3,0.9c0.9,7.2,1.8,14.4,2.7,21.6c0.1,0.5,0.5,1.1,0.9,1.3c0.7,0.3,1.4,0,1.8-0.8c0.4-0.9,0.9-1.7,1.4-2.5
	c0.6-1.1,1.3-2.2,2.1-3.5c0.4,0.6,0.6,1.1,0.9,1.3c0.4,0.4,0.9,0.8,1.4,1c0.8,0.2,1.2-0.4,1.5-1c0.5-1,1-1.9,1.7-3.2
	c0.1,0.7,0.2,1,0.3,1.4c0.3,4.1,0.6,8.3,1,12.4c0.5,6.2,1,12.4,1.5,18.6c0.1,0.8,0.3,1.4,1.3,1.4s1.3-0.5,1.4-1.4
	c0.1-1.7,0.2-3.4,0.3-5.1c0.8-15.2,1.7-30.4,2.6-45.6c0-0.4,0.1-0.8,0.1-1.2c0.5,1.6,0.7,3.2,0.9,4.8c0.7,5.7,1.5,11.3,2.2,17
	c0.1,0.8,0.2,1.5,1.2,1.6c1,0.2,1.3-0.5,1.7-1.2c0.7-1.4,1.4-2.9,2.1-4.3c0.2-0.4,0.4-0.7,0.7-1c0.2,0.1,0.3,0.1,0.4,0.2
	c0.1,0.1,0.2,0.2,0.3,0.4c1,1.8,2.4,2.4,4.5,2.2c1.2-0.2,2.5,0,3.8,0c-0.1-0.7-0.1-1.2-0.1-1.7c0-0.6-0.3-1-0.9-0.9
	c-3.1,0.6-5.4-0.5-6.9-3.3c-0.5-1-1.9-0.8-2.5,0.2c-0.3,0.6-0.6,1.2-0.9,1.8c-0.3,0.6-0.7,1.2-1.2,2.1c-0.1-0.8-0.2-1.2-0.3-1.7
	c-1.5-10.1-2.8-20.3-4.1-30.5c-0.1-0.9-0.3-1.5-1.4-1.5c-1.1,0.1-1.3,0.7-1.3,1.6c-0.2,3.5-0.4,7-0.6,10.5
	c-0.5,9.2-1.1,18.4-1.6,27.7c-0.2,2.8-0.3,5.6-0.5,8.3c-0.3-1.2-0.3-2.4-0.4-3.6c-0.3-4.4-0.7-8.8-1.1-13.1c-0.1-0.8,0-1.7-1.2-1.9
	c-1.1-0.2-1.4,0.6-1.7,1.3c-0.7,1.4-1.4,2.7-2.1,4.1c-0.2,0.3-0.4,0.6-0.7,1c-0.4-0.6-0.7-1-1.1-1.4c-0.7-0.9-1.8-1-2.5,0
	c-0.3,0.4-0.6,1-0.8,1.4C67.1,75.1,66.6,76,66.1,77z"/>
</svg>
