<?xml version="1.0" encoding="utf-8"?>
<!-- Generator: Adobe Illustrator 19.1.0, SVG Export Plug-In . SVG Version: 6.00 Build 0)  -->
<svg version="1.1" id="Untitled-2_xA0_Image_1_" xmlns="http://www.w3.org/2000/svg" xmlns:xlink="http://www.w3.org/1999/xlink"
	 x="0px" y="0px" viewBox="-78 371.2 328 74" style="enable-background:new -78 371.2 328 74;" xml:space="preserve">
<style type="text/css">
	.st0{fill:#FFFFFF;}
</style>
<path class="st0" d="M210.4,445.2c-1.8-0.3-3.5-0.5-5.3-0.9c-11-2.6-19.3-8.7-24.6-18.6c-5-9.4-5.9-19.2-2.5-29.3
	c3.1-9.2,9-16.1,17.5-20.7c4.6-2.6,9.6-4,14.9-4.4c0.3,0,0.5-0.1,0.8-0.2c1.4,0,2.6,0,4,0c0.2,0.1,0.5,0.2,0.7,0.2
	c5.3,0.4,10.2,1.8,14.8,4.4c9.5,5.3,15.8,13.3,18.4,23.9c0.5,2,0.7,4,1.1,6c0,1.7,0,3.5,0,5.3c-0.1,0.2-0.2,0.5-0.2,0.8
	c-0.5,5-1.9,9.8-4.4,14.3c-5.5,9.8-13.7,16.1-24.8,18.5c-1.7,0.4-3.5,0.5-5.1,0.8C213.8,445.2,212.1,445.2,210.4,445.2z
	 M208.5,410.3c-0.1,0-0.2-0.1-0.3-0.1c-0.1-0.6-0.2-1.1-0.2-1.7c-1-7.7-2-15.4-2.9-23c-0.1-0.7-0.3-1.1-1.1-1
	c-0.8,0-0.9,0.5-0.9,1.1c-0.1,1.2-0.2,2.5-0.2,3.7c-0.5,7.7-1,15.5-1.4,23.2c-0.2,2.2-0.2,4.4-0.4,6.5c-0.2-0.2-0.2-0.3-0.2-0.4
	c-0.2-3.5-0.5-6.9-0.8-10.4c-0.1-0.6-0.2-1.1-0.8-1.3c-0.7-0.2-1,0.2-1.3,0.7c-0.5,0.8-0.9,1.5-1.4,2.3c-0.4,0.6-0.8,0.6-1.2,0.1
	c-0.2-0.2-0.5-0.4-0.7-0.6c-0.8-0.6-1.4-1.2-2.2-1.8c-0.2,1.2-0.5,2.3,0.6,3.1c0.8,0.5,1.4,1.2,2.1,1.8c0.8,0.7,1.4,0.6,2-0.3
	c0.2-0.4,0.5-0.8,1-1.4c0.1,0.6,0.2,1,0.2,1.3c0.2,2.5,0.4,4.9,0.5,7.4c0.3,4.5,0.6,9,0.9,13.4c0.1,0.8,0.4,1.1,1.1,1.1
	c0.8,0,1.1-0.4,1.1-1.1c0.1-1.7,0.2-3.4,0.3-5.1c0.5-8.9,1.1-17.6,1.6-26.5c0.1-1.6,0.2-3.2,0.3-4.7c0.2,0.2,0.2,0.5,0.2,0.7
	c0.7,5.4,1.4,10.8,2,16.2c0.1,0.4,0.4,0.8,0.7,1c0.5,0.2,1.1,0,1.4-0.6c0.3-0.7,0.7-1.3,1.1-1.9c0.5-0.8,1-1.7,1.6-2.6
	c0.3,0.5,0.5,0.8,0.7,1c0.3,0.3,0.7,0.6,1.1,0.8c0.6,0.1,0.9-0.3,1.1-0.8c0.4-0.8,0.8-1.4,1.3-2.4c0.1,0.5,0.2,0.8,0.2,1.1
	c0.2,3.1,0.5,6.2,0.8,9.3c0.4,4.7,0.8,9.3,1.1,14c0.1,0.6,0.2,1.1,1,1.1c0.8,0,1-0.4,1.1-1.1c0.1-1.3,0.2-2.6,0.2-3.8
	c0.7-11.4,1.3-22.8,2-34.2c0-0.3,0.1-0.6,0.1-0.9c0.4,1.2,0.5,2.4,0.7,3.6c0.5,4.3,1.1,8.5,1.7,12.8c0.1,0.6,0.2,1.1,0.9,1.2
	c0.8,0.2,1-0.4,1.3-0.9c0.5-1.1,1.1-2.2,1.6-3.2c0.2-0.3,0.3-0.5,0.5-0.8c0.2,0.1,0.2,0.1,0.3,0.2c0.1,0.1,0.2,0.1,0.2,0.3
	c0.8,1.4,1.8,1.8,3.4,1.7c0.9-0.1,1.9,0,2.9,0c-0.1-0.5-0.1-0.9-0.1-1.3c0-0.5-0.2-0.8-0.7-0.7c-2.3,0.5-4.1-0.4-5.2-2.5
	c-0.4-0.8-1.4-0.6-1.9,0.1c-0.2,0.5-0.5,0.9-0.7,1.4c-0.2,0.5-0.5,0.9-0.9,1.6c-0.1-0.6-0.2-0.9-0.2-1.3c-1-7.7-2-15.3-2.9-23
	c-0.1-0.7-0.2-1.1-1.1-1.1c-0.8,0.1-1,0.5-1,1.2c-0.2,2.6-0.3,5.3-0.5,7.9c-0.4,6.9-0.8,13.8-1.2,20.8c-0.2,2.1-0.2,4.2-0.4,6.2
	c-0.2-0.9-0.2-1.8-0.3-2.7c-0.2-3.3-0.5-6.6-0.8-9.8c-0.1-0.6,0-1.3-0.9-1.4c-0.8-0.2-1.1,0.5-1.3,1c-0.5,1.1-1.1,2-1.6,3.1
	c-0.2,0.2-0.3,0.5-0.5,0.8c-0.3-0.5-0.5-0.8-0.8-1.1c-0.5-0.7-1.4-0.8-1.9,0c-0.2,0.3-0.5,0.8-0.6,1.1
	C209.3,408.8,209,409.5,208.5,410.3z"/>
<path class="st0" d="M-78,412.1c0.2-0.9,0.3-1.9,0.5-2.8c1.5-5.6,5-9.6,10.8-10.8c4.4-0.9,8.4,0.2,11.8,3.2c2.6,2.5,4.2,5.4,4.8,9
	c0.1,0.7,0.2,1.4,0.2,2c0,4.4,0.1,8.8,0.1,13.2c0,0.7-0.1,1.3-0.2,2c-1.4,0-2.6,0-3.8,0c-0.8,0-1.1-0.5-1.1-1.2c0-0.9,0-1.9,0-2.9
	c-0.7,0.6-1.1,1.1-1.7,1.5c-5.7,4.2-13.8,3.3-18.2-2.8c-1.7-2.4-2.9-5-3-8c0-0.1-0.1-0.2-0.2-0.3C-78,413.6-78,412.8-78,412.1z
	 M-73.3,413.2c0.2,1,0.3,2,0.5,3.1c1.7,6.4,8.6,8.9,13.8,5c3.7-2.7,5.6-9.6,2.1-14.3c-3.2-4.3-8.3-5.3-12.3-2.1
	C-71.8,407-73.1,409.7-73.3,413.2z"/>
<path class="st0" d="M121.4,402.2c0-2,0-3.9,0-5.8c0-2.2,0-4.4,0-6.5c0-1,0.5-1.4,1.4-1.4c0.7,0,1.4,0,2.1,0c1.1,0,1.2,0.2,1.2,1.3
	c0,7.7-0.1,15.4,0,23.1c0.1,3.3-0.8,6.4-2.5,9.1c-1.7,2.6-4.1,4.3-7.1,5.2c-9.3,2.9-16.7-3.7-18-11.2c-0.9-5.2,0.3-9.8,4-13.7
	c3-3.2,6.8-4.6,11.2-4C116.7,398.7,119.1,400.1,121.4,402.2z M121.7,413c-0.1-0.9-0.2-1.8-0.3-2.6c-1.4-6.5-8.9-9.5-14.1-5.8
	c-4.8,3.3-5.8,10.9-1.9,15.3c3.2,3.6,8.1,4.4,11.9,1.8C120.3,419.6,121.7,416.6,121.7,413z"/>
<path class="st0" d="M9.2,402.2c0-1.5,0-2.9,0-4.1c0-2.7,0-5.3,0-8c0-1.2,0.3-1.5,1.5-1.5c0.8,0,1.5,0,2.3,0c0.6,0,0.9,0.2,0.9,1
	c0,8.6,0.4,17.2-0.2,25.7c-0.4,6.4-4,10.8-10.8,12.3c-4.1,0.9-8,0.1-11.3-2.6c-2.9-2.4-4.7-5.4-5.3-9.2c-0.6-4.5,0.1-8.6,3-12.2
	c2.9-3.8,6.8-5.6,11.6-5.3c3,0.2,5.7,1.4,7.9,3.5C8.8,401.9,8.9,402,9.2,402.2z M0.1,403c-1.4-0.1-2.8,0.3-4.1,1
	c-5.3,2.9-6.8,10.1-3.4,15.2c3.3,4.8,9.8,5.4,13.9,1.3c2.5-2.5,3.2-5.6,2.8-9C8.7,405.9,4,402.8,0.1,403z"/>
<path class="st0" d="M136.4,414.1c-0.3,3.3,2.3,7.4,5.6,8.6c2.6,1,5,0.6,7.4-0.5c2.5-1.1,3.8-3.4,5-5.6c1.4,0.8,2.6,1.4,4.1,2.3
	c-0.9,1.4-1.6,2.9-2.6,4.1c-2.1,2.7-4.9,4.4-8.3,4.8c-7.8,1.1-13.8-2.6-15.8-10.8c-1.4-5.8,0-11,4.4-15.2c2.9-2.9,6.6-3.7,10.7-3.3
	c5.9,0.5,10.9,5.5,11.9,12.1c0.2,0.8,0.2,1.6,0.2,2.3c0,1-0.4,1.4-1.4,1.4c-6.8,0-13.4,0-20.2,0
	C137.2,414.1,136.8,414.1,136.4,414.1z M153.7,409.6c-0.7-3.4-4.3-6.4-7.7-6.5c-4.7-0.1-8.2,2.4-9,6.5
	C142.6,409.6,148.1,409.6,153.7,409.6z"/>
<path class="st0" d="M29.9,413.1c0.1-6.5,3.9-12.3,9.5-14.2c7.9-2.6,15.7,1.7,17.9,10.1c1.5,5.9,0.2,11.1-4.2,15.4
	c-2.9,2.9-6.5,3.7-10.4,3.5c-6.4-0.3-11.3-5.7-12.5-11.8C30,415.1,30,414.1,29.9,413.1z M53,413.2c0.2-3.8-1.7-6.4-3.6-8
	c-2.8-2.4-7-2.7-10-0.7c-3.7,2.5-5.5,6.8-4.4,11.3c1.5,6.2,7.1,8.6,12.2,6.7C50.9,421.2,53.3,417,53,413.2z"/>
<path class="st0" d="M-39.4,407.9c0,2.5-0.1,5,0,7.4c0,1.1,0.2,2.3,0.5,3.5c1.1,3.3,4.6,4.7,7.6,4.3c3-0.5,5-2.1,5.6-5
	c0.3-1.6,0.3-3.2,0.4-4.8c0.1-4.2,0-8.5,0-12.7c0-1.1,0.4-1.5,1.5-1.5c0.8,0,1.4,0,2.2,0c0.8,0,1.2,0.5,1.2,1.1
	c0,4.9,0.1,9.8,0,14.6c-0.1,2.6-0.4,5.3-1.7,7.7c-1.9,3.3-4.7,5.1-8.6,5.4c-2,0.2-3.8,0.1-5.6-0.5c-3.9-1.2-6.2-4-7.1-7.9
	c-0.5-2.2-0.6-4.5-0.7-6.8c-0.1-4.1,0-8,0-12.1c0-1.4,0.3-1.7,1.7-1.7c0.6,0,1.2,0,1.8,0c0.8,0,1.3,0.5,1.4,1.4
	C-39.4,402.8-39.4,405.4-39.4,407.9z"/>
<path class="st0" d="M72.2,408.9c2-3,4-5.9,6-8.8c0.2-0.3,0.6-0.5,1-0.5c1.1-0.1,2-0.1,3.1,0c0.3,0,0.7,0.3,0.9,0.6
	c0.4,0.4,0.2,0.7-0.1,1.1c-2.5,3.6-5,7.2-7.4,10.9c-0.2,0.3-0.4,0.6-0.6,0.9c3,4.3,5.9,8.6,8.9,12.8c0.3,0.5,0.7,0.8,0.3,1.5
	c-0.4,0.7-0.9,0.5-1.4,0.5c-2.5,0.5-4-0.6-5.3-2.7c-1.7-2.8-3.6-5.3-5.5-8c-1.3,1.9-2.6,3.7-3.8,5.6c-1.1,1.5-2.1,3-3.1,4.5
	c-0.3,0.5-0.7,0.7-1.3,0.7c-0.9-0.1-1.7,0-2.6,0c-0.5,0-0.9,0.1-1.2-0.5c-0.3-0.5-0.2-0.9,0.2-1.4c2.9-4.1,5.6-8.3,8.5-12.4
	c0.4-0.5,0.3-0.8,0-1.3c-2.6-3.7-5-7.4-7.6-11.1c-0.3-0.4-0.4-0.8-0.2-1.2c0.2-0.5,0.6-0.6,1.1-0.6c0.2,0,0.3,0,0.5,0
	c2.4-0.5,3.8,0.6,5,2.6C69,404.6,70.7,406.7,72.2,408.9z"/>
<path class="st0" d="M92.1,413.9c0,4.2,0,8.4,0,12.6c0,1.1-0.4,1.5-1.5,1.5c-0.6,0-1.2,0-1.8,0c-1,0-1.4-0.5-1.4-1.4
	c0-4.7,0-9.4,0-14.1c0-3.8,0-7.6,0-11.3c0-1.1,0.4-1.5,1.4-1.5c0.7,0,1.4,0,2,0c0.9,0,1.3,0.4,1.3,1.4
	C92.1,405.2,92.1,409.5,92.1,413.9z"/>
<path class="st0" d="M19.9,413.6c0-4.2,0-8.4,0-12.6c0-1.1,0.4-1.5,1.5-1.5c0.6,0,1.3,0,1.9,0c0.9,0,1.3,0.5,1.4,1.3
	c0,1.4,0,2.8,0,4.1c0,7.1,0,14.2,0,21.3c0,1.3-0.4,1.6-1.6,1.6c-0.6,0-1.1,0-1.7,0c-1,0-1.4-0.5-1.4-1.4
	C19.9,422.2,19.9,417.9,19.9,413.6z"/>
<path class="st0" d="M22.2,395.8c-1.9,0-3.4-1.7-3.4-3.7c0-2,1.6-3.5,3.4-3.6c1.9,0,3.5,1.7,3.5,3.7
	C25.7,394.2,24.2,395.8,22.2,395.8z"/>
<path class="st0" d="M93.2,392.2c0,2-1.5,3.6-3.5,3.6c-1.9,0-3.5-1.7-3.5-3.6c0-2,1.7-3.7,3.5-3.6C91.7,388.5,93.2,390.2,93.2,392.2
	z"/>
</svg>
